<svg xmlns="http://www.w3.org/2000/svg" xmlns:xlink="http://www.w3.org/1999/xlink"><defs><symbol viewBox="0 0 481 144" fill="none" id="icon-bg-bubbles">

<g mask="url(#icon-bg-bubbles_mask0_101_2)">
<path d="M159.298 79.3753C181.216 79.3753 198.985 61.6067 198.985 39.6878C198.985 17.7689 181.216 0 159.298 0C137.379 0 119.61 17.7689 119.61 39.6878C119.61 61.6067 137.379 79.3753 159.298 79.3753Z" fill="#E8F5FF" />
<path d="M176.811 14.75C171.787 11.1537 165.657 9.00673 159.006 9.00673C142.109 9.00673 128.394 22.7177 128.394 39.6283C128.394 46.6661 130.787 53.1203 134.78 58.2938C136.918 35.7128 154.485 17.6763 176.811 14.75Z" fill="white" />
<path d="M179 189C204.957 189 226 167.958 226 142C226 116.043 204.957 95 179 95C153.042 95 132 116.043 132 142C132 167.958 153.042 189 179 189Z" fill="#E8F5FF" />
<path d="M199.74 112.468C193.791 108.209 186.531 105.666 178.655 105.666C158.645 105.666 142.402 121.903 142.402 141.93C142.402 150.264 145.236 157.908 149.965 164.034C152.497 137.293 173.3 115.933 199.74 112.468Z" fill="white" />
<path d="M91.5502 141.508C108.706 141.508 122.614 127.6 122.614 110.444C122.614 93.288 108.706 79.3806 91.5502 79.3806C74.3943 79.3806 60.4866 93.288 60.4866 110.444C60.4866 127.6 74.3943 141.508 91.5502 141.508Z" fill="#E8F5FF" />
<path d="M105.74 91.0885C101.752 88.226 96.8699 86.5212 91.5779 86.5212C78.1405 86.5212 67.2285 97.4287 67.2285 110.88C67.2285 116.482 69.1338 121.614 72.3063 125.73C74.0065 107.762 87.9861 93.4222 105.74 91.0885Z" fill="white" />
<path d="M320.112 127.225C336.743 127.225 350.225 113.743 350.225 97.1124C350.225 80.4817 336.743 67 320.112 67C303.482 67 290 80.4817 290 97.1124C290 113.743 303.482 127.225 320.112 127.225Z" fill="#E8F5FF" />
<path d="M332.983 77.5021C329.329 74.8779 324.855 73.3179 320.005 73.3179C307.692 73.3179 297.697 83.3081 297.697 95.6377C297.697 100.761 299.444 105.474 302.347 109.243C303.907 92.7746 316.714 79.6367 332.983 77.5021Z" fill="white" />
<path d="M254 102C262.284 102 269 95.2842 269 86.9999C269 78.7157 262.284 72 254 72C245.716 72 239 78.7157 239 86.9999C239 95.2842 245.716 102 254 102Z" fill="#E8F5FF" />
<path d="M260.411 77.2315C258.591 75.9244 256.362 75.1473 253.946 75.1473C247.813 75.1473 242.834 80.1237 242.834 86.2655C242.834 88.8175 243.704 91.1653 245.151 93.0424C245.927 84.8392 252.307 78.2949 260.411 77.2315Z" fill="white" />
<path d="M19.0393 150.962C29.5544 150.962 38.0786 142.438 38.0786 131.923C38.0786 121.407 29.5544 112.883 19.0393 112.883C8.5242 112.883 0 121.407 0 131.923C0 142.438 8.5242 150.962 19.0393 150.962Z" fill="#E8F5FF" />
<path d="M27.6587 121.412C25.3568 119.767 22.549 118.782 19.4996 118.782C11.7599 118.782 5.4788 125.063 5.4788 132.807C5.4788 136.03 6.57274 138.988 8.40511 141.358C9.38511 131.016 17.4302 122.757 27.6587 121.412Z" fill="white" />
<path d="M461.039 130.079C471.554 130.079 480.079 121.554 480.079 111.039C480.079 100.524 471.554 92 461.039 92C450.524 92 442 100.524 442 111.039C442 121.554 450.524 130.079 461.039 130.079Z" fill="#E8F5FF" />
<path d="M469.659 100.529C467.357 98.8833 464.549 97.8986 461.5 97.8986C453.76 97.8986 447.479 104.18 447.479 111.924C447.479 115.147 448.573 118.105 450.405 120.475C451.385 110.133 459.43 101.873 469.659 100.529Z" fill="white" />
</g>
</symbol><mask id="icon-bg-bubbles_mask0_101_2" style="mask-type:alpha" maskUnits="userSpaceOnUse" x="0" y="0" width="640" height="144">
<rect width="640" height="144" fill="#C4C4C4" />
</mask><symbol viewBox="0 0 122 52" fill="none" id="icon-bubbles">
<path d="M12 28C18.6274 28 24 22.6275 24 16C24 9.37263 18.6274 4 12 4C5.37254 4 0 9.37263 0 16C0 22.6275 5.37254 28 12 28Z" fill="#29A9E0" />
<path d="M17.2953 8.46015C15.7765 7.37275 13.9228 6.7236 11.912 6.7236C6.80302 6.7236 2.65601 10.8693 2.65601 15.9824C2.65601 18.1103 3.37956 20.0618 4.58687 21.6261C5.23324 14.7985 10.5448 9.34495 17.2953 8.46015Z" fill="#63CEF5" />
<path d="M56.9999 52C67.4933 52 76 43.4935 76 33.0001C76 22.5067 67.4933 14 56.9999 14C46.5065 14 38 22.5067 38 33.0001C38 43.4935 46.5065 52 56.9999 52Z" fill="#29A9E0" />
<path d="M65.3842 21.0619C62.9794 19.3402 60.0444 18.3124 56.8607 18.3124C48.7714 18.3124 42.2053 24.8764 42.2053 32.9721C42.2053 36.3414 43.351 39.4313 45.2625 41.908C46.2859 31.0976 54.696 22.4629 65.3842 21.0619Z" fill="#63CEF5" />
<path d="M106 32C114.837 32 122 24.8366 122 16.0001C122 7.1635 114.837 0 106 0C97.1634 0 90 7.1635 90 16.0001C90 24.8366 97.1634 32 106 32Z" fill="#29A9E0" />
<path d="M113.06 5.94693C111.035 4.49706 108.564 3.63153 105.883 3.63153C99.0706 3.63153 93.5413 9.15907 93.5413 15.9766C93.5413 18.8138 94.506 21.4158 96.1157 23.5015C96.9776 14.398 104.06 7.12667 113.06 5.94693Z" fill="#63CEF5" />
</symbol><symbol viewBox="0 0 426.667 426.667" id="icon-checked">
<g>
	<g>
		<path d="M421.876,56.307c-6.548-6.78-17.352-6.968-24.132-0.42c-0.142,0.137-0.282,0.277-0.42,0.42L119.257,334.375    l-90.334-90.334c-6.78-6.548-17.584-6.36-24.132,0.42c-6.388,6.614-6.388,17.099,0,23.713l102.4,102.4    c6.665,6.663,17.468,6.663,24.132,0L421.456,80.44C428.236,73.891,428.424,63.087,421.876,56.307z" />
	</g>
</g>
<g>
</g>
<g>
</g>
<g>
</g>
<g>
</g>
<g>
</g>
<g>
</g>
<g>
</g>
<g>
</g>
<g>
</g>
<g>
</g>
<g>
</g>
<g>
</g>
<g>
</g>
<g>
</g>
<g>
</g>
</symbol><symbol viewBox="0 0 24 24" fill="none" id="icon-close">
<path d="M15.108 7.2L12 10.308L8.892 7.2L7.2 8.892L10.308 12L7.2 15.108L8.892 16.8L12 13.692L15.108 16.8L16.8 15.108L13.692 12L16.8 8.892L15.108 7.2ZM12 0C5.364 0 0 5.364 0 12C0 18.636 5.364 24 12 24C18.636 24 24 18.636 24 12C24 5.364 18.636 0 12 0ZM12 21.6C6.708 21.6 2.4 17.292 2.4 12C2.4 6.708 6.708 2.4 12 2.4C17.292 2.4 21.6 6.708 21.6 12C21.6 17.292 17.292 21.6 12 21.6Z" fill="#29A9E0" />
</symbol><symbol viewBox="0 0 134 141" fill="none" id="icon-features-careful">
<path d="M66.7529 138.981C103.62 138.981 133.506 109.094 133.506 72.2279C133.506 35.3613 103.62 5.47498 66.7529 5.47498C29.8863 5.47498 0 35.3613 0 72.2279C0 109.094 29.8863 138.981 66.7529 138.981Z" fill="#E8F5FF" />
<path d="M76.0509 66.3799C76.3972 65.9694 77.3066 65.9081 77.7907 65.9081C78.5093 65.9081 79.0472 65.9081 79.391 68.406C79.4232 68.6416 79.4198 68.8363 79.4476 68.9789C79.6118 69.8149 80.1345 70.4958 80.6949 70.9112V91.492C80.6949 93.1167 82.0119 94.4338 83.6366 94.4338C85.2613 94.4338 86.5783 93.1167 86.5783 91.492V61.4134C86.8585 59.7635 88.0834 59.7635 88.6756 59.7635C90.4902 59.7635 91.1472 60.9898 91.1528 61.0021C91.2355 61.1831 91.3411 61.3506 91.3411 61.5059V88.9706C91.3411 90.5952 92.6581 91.9123 94.2828 91.9123C95.9075 91.9123 97.2245 90.5952 97.2245 88.9706V57.2877C97.5047 56.5963 98.2062 55.2675 100.26 55.2675C101.791 55.2675 102.267 56.22 102.548 56.9148V91.4923C102.548 93.117 103.865 94.434 105.489 94.434C107.114 94.434 108.431 93.117 108.431 91.4923V62.0981C108.991 61.9538 109.373 61.862 109.997 61.862C111.118 61.862 111.864 62.246 112.386 63.1874C112.939 64.1853 113.047 65.4337 113.047 66.014C113.048 70.5633 113.754 93.1131 113.754 93.5002V98.9537C112.353 99.0478 110.641 99.168 108.368 99.2966C102.242 99.6434 98.9674 102.446 98.6027 102.764L102.456 107.198L102.408 107.224C102.497 107.149 104.628 105.404 108.74 105.171C114.015 104.872 116.915 104.626 117.037 104.615C118.561 104.487 119.637 103.213 119.637 101.684V93.4409C119.637 93.4008 119.729 93.361 119.727 93.321C119.724 93.2579 119.748 91.2175 119.636 88.2267C119.944 88.1444 120.322 88.0895 120.815 88.0895C121.461 88.0895 123.422 88.0895 123.422 92.2418C123.422 95.4799 123.404 97.2721 123.397 98.4471C123.389 100.061 123.371 100.548 123.407 101.982C123.601 109.708 121.782 111.099 120.205 112.326C118.769 113.442 115.104 116.35 114.95 116.473C114.253 117.031 113.754 117.876 113.754 118.769V132.671L82.9989 137.376L83.0802 127.141C83.0861 126.57 82.8849 126.008 82.5767 125.527C80.6792 122.555 75.6514 113.525 75.6514 107.529V69.0114C75.6514 68.8066 75.7354 68.6635 75.6937 68.4657C75.6211 68.0082 75.6248 66.8842 76.0509 66.3799Z" fill="#29ABE2" />
<path d="M51.8082 68.2189C51.7665 68.4167 51.8382 68.5599 51.8382 68.7647V107.282C51.8382 113.278 46.8297 122.308 44.9322 125.28C44.6237 125.762 44.4223 126.323 44.4279 126.895L44.4932 137.129L13.736 132.425V118.523C13.736 117.63 13.2493 116.785 12.552 116.227C12.3982 116.104 8.72607 113.196 7.29051 112.08C5.71291 110.853 3.90445 109.462 4.09833 101.736C4.13447 100.302 4.12186 99.8147 4.11346 98.2009C4.10757 97.0259 4.093 95.2334 4.09328 91.9956C4.09328 87.8433 6.05835 87.8433 6.70497 87.8433C7.19749 87.8433 7.58272 87.8982 7.8909 87.9806C7.77939 90.9713 7.77716 93.0117 7.77435 93.0748C7.77267 93.1148 7.85224 93.1546 7.85224 93.1947V101.438C7.85224 102.967 8.94207 104.24 10.4653 104.369C10.5878 104.38 13.481 104.626 18.7565 104.925C22.8676 105.157 25.01 106.903 25.1 106.978L25.0596 106.952L28.9225 102.518C28.5574 102.2 25.2582 99.3972 19.1325 99.0504C16.8595 98.9218 15.1368 98.8016 13.736 98.7075V93.2541C13.736 92.8666 14.4616 70.3171 14.4621 65.7678C14.4621 65.1876 14.5694 63.9392 15.1222 62.9412C15.6441 61.9999 16.3748 61.6158 17.4952 61.6158C18.1197 61.6158 18.4987 61.7077 19.0591 61.852V91.2462C19.0591 92.8708 20.3761 94.1879 22.0008 94.1879C23.6254 94.1879 24.9425 92.8708 24.9425 91.2462V56.6684C25.2227 55.9738 25.6992 55.021 27.2298 55.021C29.2839 55.021 29.9854 56.3498 30.2656 57.0413V88.7244C30.2656 90.3491 31.5827 91.6661 33.2073 91.6661C34.832 91.6661 36.149 90.3491 36.149 88.7244V61.2597C36.149 61.1045 36.2802 60.9369 36.3631 60.7559C36.3687 60.7436 36.9926 59.5173 38.807 59.5173C39.3992 59.5173 40.6317 59.5173 40.9118 61.1672V91.2459C40.9118 92.8705 42.2289 94.1876 43.8535 94.1876C45.4782 94.1876 46.7953 92.8705 46.7953 91.2459V70.665C47.3556 70.2496 47.8907 69.5688 48.0549 68.7328C48.0829 68.5902 48.0717 68.3954 48.1039 68.1598C48.4477 65.6619 48.9954 65.6619 49.7143 65.6619C50.1984 65.6619 51.093 65.7232 51.4395 66.1337C51.8651 66.6377 51.8811 67.762 51.8082 68.2189Z" fill="#29ABE2" />
<path d="M17.9382 35.3395V40.1023" stroke="#021A63" stroke-width="3" stroke-miterlimit="10" stroke-linecap="round" stroke-linejoin="round" />
<path d="M17.9382 21.3314V26.0942" stroke="#021A63" stroke-width="3" stroke-miterlimit="10" stroke-linecap="round" stroke-linejoin="round" />
<path d="M13.4557 30.8569H8.69287" stroke="#021A63" stroke-width="3" stroke-miterlimit="10" stroke-linecap="round" stroke-linejoin="round" />
<path d="M26.9034 30.8569H22.7009" stroke="#021A63" stroke-width="3" stroke-miterlimit="10" stroke-linecap="round" stroke-linejoin="round" />
<path d="M46.5149 15.728V20.4908" stroke="#021A63" stroke-width="3" stroke-miterlimit="10" stroke-linecap="round" stroke-linejoin="round" />
<path d="M46.5149 2V6.76278" stroke="#021A63" stroke-width="3" stroke-miterlimit="10" stroke-linecap="round" stroke-linejoin="round" />
<path d="M41.7521 11.2455H37.2695" stroke="#021A63" stroke-width="3" stroke-miterlimit="10" stroke-linecap="round" stroke-linejoin="round" />
<path d="M55.7603 11.2455H50.9976" stroke="#021A63" stroke-width="3" stroke-miterlimit="10" stroke-linecap="round" stroke-linejoin="round" />
<path d="M65.2859 46.8262V51.3088" stroke="#021A63" stroke-width="3" stroke-miterlimit="10" stroke-linecap="round" stroke-linejoin="round" />
<path d="M65.2859 33.0983V37.861" stroke="#021A63" stroke-width="3" stroke-miterlimit="10" stroke-linecap="round" stroke-linejoin="round" />
<path d="M60.8033 42.0634H56.0405" stroke="#021A63" stroke-width="3" stroke-miterlimit="10" stroke-linecap="round" stroke-linejoin="round" />
<path d="M74.8114 42.0634H70.0486" stroke="#021A63" stroke-width="3" stroke-miterlimit="10" stroke-linecap="round" stroke-linejoin="round" />
<path d="M89.9403 22.1718V26.9345" stroke="#021A63" stroke-width="3" stroke-miterlimit="10" stroke-linecap="round" stroke-linejoin="round" />
<path d="M89.9403 8.44373V13.2065" stroke="#021A63" stroke-width="3" stroke-miterlimit="10" stroke-linecap="round" stroke-linejoin="round" />
<path d="M85.4577 17.6892H80.9751" stroke="#021A63" stroke-width="3" stroke-miterlimit="10" stroke-linecap="round" stroke-linejoin="round" />
<path d="M99.4659 17.6892H94.7031" stroke="#021A63" stroke-width="3" stroke-miterlimit="10" stroke-linecap="round" stroke-linejoin="round" />
<path d="M114.595 41.223V45.9858" stroke="#021A63" stroke-width="3" stroke-miterlimit="10" stroke-linecap="round" stroke-linejoin="round" />
<path d="M114.595 27.4949V31.9775" stroke="#021A63" stroke-width="3" stroke-miterlimit="10" stroke-linecap="round" stroke-linejoin="round" />
<path d="M110.112 36.7402H105.349" stroke="#021A63" stroke-width="3" stroke-miterlimit="10" stroke-linecap="round" stroke-linejoin="round" />
<path d="M124.12 36.7402H119.358" stroke="#021A63" stroke-width="3" stroke-miterlimit="10" stroke-linecap="round" stroke-linejoin="round" />
<path d="M93.8628 120.509V124.151" stroke="#021A63" stroke-width="3" stroke-miterlimit="10" stroke-linecap="round" stroke-linejoin="round" />
<path d="M93.8628 108.742V112.945" stroke="#021A63" stroke-width="3" stroke-miterlimit="10" stroke-linecap="round" stroke-linejoin="round" />
<path d="M90.2206 116.867H86.2983" stroke="#021A63" stroke-width="3" stroke-miterlimit="10" stroke-linecap="round" stroke-linejoin="round" />
<path d="M101.707 116.867H97.785" stroke="#021A63" stroke-width="3" stroke-miterlimit="10" stroke-linecap="round" stroke-linejoin="round" />
<path d="M35.5886 117.708V122.47" stroke="#021A63" stroke-width="3" stroke-miterlimit="10" stroke-linecap="round" stroke-linejoin="round" />
<path d="M35.5886 104.26V108.742" stroke="#021A63" stroke-width="3" stroke-miterlimit="10" stroke-linecap="round" stroke-linejoin="round" />
<path d="M30.8259 113.505H26.3433" stroke="#021A63" stroke-width="3" stroke-miterlimit="10" stroke-linecap="round" stroke-linejoin="round" />
<path d="M44.8341 113.505H40.0713" stroke="#021A63" stroke-width="3" stroke-miterlimit="10" stroke-linecap="round" stroke-linejoin="round" />
<path d="M46.515 89.6912V59.5669C46.515 59.5669 45.7339 55.021 40.7383 55.021C37.9283 55.021 36.6269 56.7087 36.0461 57.9748" stroke="#021A63" stroke-width="3" stroke-miterlimit="10" stroke-linecap="round" stroke-linejoin="round" />
<path d="M24.6624 89.6913V54.7708C24.6624 54.7708 25.395 50.5247 29.8913 50.5247C34.8866 50.5247 35.8689 55.0706 35.8689 55.0706V87.1698" stroke="#021A63" stroke-width="3" stroke-miterlimit="10" stroke-linecap="round" stroke-linejoin="round" />
<path d="M28.2661 103.18C28.2661 103.18 26.231 100.732 20.9356 100.432C15.6402 100.132 13.4558 99.883 13.4558 99.883V91.6398C13.4558 91.6398 13.4917 71.8566 13.4925 64.2129C13.4925 62.3307 13.9744 57.1191 19.0619 57.1191C24.2511 57.1191 24.6859 61.3653 24.6859 61.3653" stroke="#021A63" stroke-width="3" stroke-miterlimit="10" stroke-linecap="round" stroke-linejoin="round" />
<path d="M13.4557 133.397V116.969C13.4557 116.969 8.93272 113.963 7.49688 112.847C4.78938 110.741 2.21636 108.201 2.41976 100.107C2.48055 97.6916 2.42844 98.0841 2.429 90.4407C2.429 88.5589 2.89687 83.3467 7.98493 83.3467C10.5795 83.3467 11.9747 84.4074 12.7214 85.4678" stroke="#021A63" stroke-width="3" stroke-miterlimit="10" stroke-linecap="round" stroke-linejoin="round" />
<path d="M84.8975 89.6912V59.5669C84.8975 59.5669 85.7298 55.021 90.7252 55.021C93.1841 55.021 94.4802 56.3134 95.15 57.4845" stroke="#021A63" stroke-width="3" stroke-miterlimit="10" stroke-linecap="round" stroke-linejoin="round" />
<path d="M106.75 89.6913V54.7708C106.75 54.7708 106.018 50.5247 101.522 50.5247C96.5259 50.5247 95.5437 55.0706 95.5437 55.0706V87.1698" stroke="#021A63" stroke-width="3" stroke-miterlimit="10" stroke-linecap="round" stroke-linejoin="round" />
<path d="M103.248 103.18C103.248 103.18 105.372 100.732 110.667 100.432C115.963 100.132 118.237 99.8827 118.237 99.8827V91.6394C118.237 91.6394 118.111 71.8562 118.111 64.2125C118.111 62.3304 117.585 57.1188 112.497 57.1188C107.307 57.1188 106.851 61.3649 106.851 61.3649" stroke="#021A63" stroke-width="3" stroke-miterlimit="10" stroke-linecap="round" stroke-linejoin="round" />
<path d="M118.391 133.455L117.991 116.969C117.991 116.969 122.547 113.963 123.983 112.847C126.691 110.741 129.281 108.201 129.077 100.107C129.017 97.6916 129.077 98.0841 129.077 90.4407C129.077 88.5589 128.613 83.3467 123.525 83.3467C120.691 83.3467 119.279 84.6211 118.58 85.7777" stroke="#021A63" stroke-width="3" stroke-miterlimit="10" stroke-linecap="round" stroke-linejoin="round" />
<path d="M50.1572 139V125.811L50.1521 125.312C50.1521 125.312 57.4414 113.922 57.4414 105.728C57.4414 97.5353 57.4414 67.2107 57.4414 67.2107C57.4414 67.2107 57.8412 61.1659 51.7468 61.1659C47.4502 61.1659 46.9465 65.6365 46.7551 66.6114" stroke="#021A63" stroke-width="3" stroke-miterlimit="10" stroke-linecap="round" stroke-linejoin="round" />
<path d="M81.5356 139V125.811L81.5375 125.312C81.5375 125.312 74.2513 113.922 74.2513 105.728C74.2513 97.5353 74.2513 67.2107 74.2513 67.2107C74.2513 67.2107 73.7621 61.1659 79.8574 61.1659C84.1534 61.1659 84.6997 65.6365 84.8914 66.6114" stroke="#021A63" stroke-width="3" stroke-miterlimit="10" stroke-linecap="round" stroke-linejoin="round" />
</symbol><symbol viewBox="0 0 135 134" fill="none" id="icon-features-equipment">
<path d="M68 134C105.003 134 135 104.003 135 67C135 29.9969 105.003 0 68 0C30.9969 0 1 29.9969 1 67C1 104.003 30.9969 134 68 134Z" fill="#E8F5FF" />
<path fill-rule="evenodd" clip-rule="evenodd" d="M28.4639 103.727C28.6366 103.381 28.766 103.003 28.9927 102.699C29.3236 102.254 29.7875 102.001 30.3741 102.024C31.2572 102.058 32.1493 102.012 33.0219 102.123C34.0137 102.249 34.7113 103.18 34.711 104.183C34.7101 109.032 34.7116 113.881 34.7116 118.73C34.7116 119.841 33.995 120.741 32.8992 120.86C32.0804 120.949 31.2458 120.931 30.42 120.902C29.5778 120.874 28.957 120.459 28.6173 119.664C28.5796 119.575 28.5153 119.498 28.4636 119.416C28.4639 114.186 28.4639 108.957 28.4639 103.727Z" fill="#29ABE2" />
<path fill-rule="evenodd" clip-rule="evenodd" d="M90.1629 82.0153C89.5354 77.0679 88.8866 71.9523 88.3178 66.9015C88.3172 66.8953 88.3166 66.8895 88.316 66.8836C88.3014 66.8761 88.286 66.8676 88.269 66.8585C83.4008 64.3083 77.8735 62.6298 71.3714 61.728C67.3594 61.1712 63.3325 60.8893 59.4026 60.8893C53.8753 60.8893 48.3489 61.4475 42.9771 62.5483C39.9764 63.1635 37.1851 63.9396 34.5464 64.8887C33.8862 70.5854 33.1641 76.2751 32.4554 81.9663C32.1644 84.3018 31.8568 86.635 31.5469 89.0485C32.6324 89.0949 33.6861 89.1826 34.7401 89.1767C37.4188 89.1627 39.1938 90.5506 40.4838 92.755C40.8826 93.4362 41.0263 94.1434 41.028 94.9333C41.0412 103.346 41.0803 111.817 41.1119 120.229C41.1154 121.054 41.1154 121.113 41.9552 121.113C54.927 121.113 67.8978 121.113 80.869 121.113C80.899 113.81 80.9288 106.744 80.9636 99.588C80.9668 98.9474 81.0232 98.071 81.4351 97.1973C83.1566 93.544 85.5298 91.7352 87.8273 90.9195C88.6982 90.0613 89.7626 89.4776 91.0754 89.2632C90.9884 88.5712 90.9013 87.875 90.8152 87.1859C90.5999 85.4633 90.3814 83.7374 90.1629 82.0153ZM55.5051 66.7785C58.1169 66.7785 60.8717 66.7785 63.2086 66.7785C63.2086 66.7785 63.2086 66.8539 63.2086 66.8889C66.1299 66.8889 68.7105 66.8708 71.4281 66.8988C72.3308 66.9079 72.9115 67.4244 73.0117 68.1967C73.1163 69.0059 72.6051 69.7552 71.783 69.821C70.6411 69.9118 69.5016 69.9492 68.3567 69.9536C64.0666 69.9702 59.7809 69.9641 55.491 69.9647C54.6553 69.965 53.8572 69.1783 53.8642 68.3732C53.8706 67.5734 54.6868 66.7785 55.5051 66.7785ZM73.0202 101.904C73.166 106.817 68.4023 111.489 63.433 111.453C58.3635 111.417 53.8186 106.865 53.842 101.82C53.8651 96.8257 58.3974 92.2277 63.6521 92.2826C68.3512 92.3311 73.1841 96.8044 73.0202 101.904ZM75.9902 78.8403C75.6318 79.3798 75.188 79.5849 74.5138 79.5828C67.1272 79.5565 59.7409 79.5662 52.3545 79.5659C51.5602 79.5659 50.9257 79.0573 50.7335 78.2715C50.5828 77.6534 51.0107 76.7466 51.6391 76.4516C51.8357 76.3593 52.0934 76.3768 52.3227 76.3768C56.0797 76.3727 59.8364 76.3739 63.5934 76.3739C67.3074 76.3736 71.0221 76.3978 74.7361 76.3557C75.6195 76.3455 75.8716 76.9768 76.2408 77.5082C76.5832 78.0016 76.2698 78.4208 75.9902 78.8403Z" fill="#29ABE2" />
<path fill-rule="evenodd" clip-rule="evenodd" d="M86.7156 44.0273C86.4904 42.1072 86.2774 40.2934 85.4735 38.7419C84.4937 36.8492 83.0649 35.1213 81.1054 33.4586C77.4486 30.3562 72.9005 28.3823 67.2006 27.4239C63.852 26.861 60.5341 26.5756 57.3388 26.5756C55.532 26.5756 53.7288 26.6687 51.9553 26.8493C49.4766 27.5568 47.1081 28.5734 44.9034 30.0445C41.1181 32.5705 38.5664 35.9089 37.8668 40.5516C37.0669 45.8621 36.126 51.151 35.2566 56.4513C35.1652 57.0092 35.0828 57.5695 35.0022 58.1345C37.3217 57.4501 39.9721 56.8138 42.9593 56.302C47.7297 54.6907 54.6048 53.1924 63.696 53.1924C75.6272 53.1924 83.8607 56.0166 88.2872 58.0796C87.79 53.4947 87.2773 48.8026 86.734 44.1804L86.7156 44.0273ZM79.2816 44.2849C68.734 44.2849 58.1705 44.2849 47.4233 44.2849C48.226 42.8243 49.011 41.4592 50.0667 40.3156C53.5357 36.5574 57.9017 34.949 62.9444 34.9688C65.0056 34.9767 67.0677 35.0416 69.0679 35.62C73.5744 36.9234 76.9984 39.58 79.1724 43.7775C79.2302 43.89 79.2738 43.977 79.3144 44.0968C79.3263 44.1319 79.3047 44.2849 79.2816 44.2849Z" fill="#29ABE2" />
<path fill-rule="evenodd" clip-rule="evenodd" d="M95.0635 111.882C95.0629 114.212 95.0629 116.542 95.0629 118.872C95.0629 119.808 94.3493 120.746 93.4218 120.835C92.5042 120.923 91.5656 120.927 90.6487 120.839C89.6797 120.747 88.9915 119.843 88.9915 118.857C88.9909 114.21 89.002 109.564 88.9827 104.917C88.9786 103.982 89.7805 102.898 90.7626 102.839C91.6574 102.786 92.5688 102.793 93.4574 102.901C94.3756 103.013 95.0627 103.928 95.0635 104.852C95.0659 107.195 95.0638 109.538 95.0635 111.882Z" fill="#29ABE2" />
<path d="M79.626 10.5538C70.9459 9.08795 64.6895 8.75201 58.7065 9.42973C52.5033 10.1326 46.3684 11.9887 38.8118 15.4469C32.8878 18.1581 26.9743 22.8259 21.7068 28.945C15.5716 36.0722 10.7116 44.668 7.25486 54.4929C3.78648 64.3492 1.84064 74.9459 1.61337 85.1381C1.40012 94.6964 2.77398 102.965 5.45538 108.42C7.98984 113.576 12.8668 117.154 19.5036 118.768C22.0392 119.384 24.356 119.602 26.1088 119.668V115.709C24.6482 115.643 22.525 115.444 20.3353 114.902C14.8512 113.545 10.9888 110.778 8.97254 106.676C4.48144 97.5393 3.65707 76.6046 10.9753 55.8043C14.2681 46.4458 18.8854 38.276 24.6984 31.5236C29.5269 25.9145 35.1225 21.4813 40.4549 19.0409C47.6149 15.7638 53.3808 14.0108 59.1505 13.357C64.7456 12.7231 70.6719 13.0503 78.9673 14.451C88.5559 16.0703 98.7198 21.7164 102.696 24.1025L104.798 20.7466C100.64 18.232 90.0221 12.3095 79.626 10.5538Z" fill="#29ABE2" />
<path fill-rule="evenodd" clip-rule="evenodd" d="M120.917 51.6273C120.916 52.4747 120.916 53.3222 120.915 54.1696L127.28 57.4662C127.279 56.6807 127.279 55.8946 127.278 55.1091C127.277 54.4016 127.412 53.8261 127.877 53.2485C128.945 51.922 129.448 50.3291 129.928 48.7136C129.986 48.5161 130.105 48.3292 130.105 48.137C130.105 43.7598 130.105 39.382 130.105 35.0046C129.521 33.4178 129.055 31.8096 128.406 30.2529C128.085 29.4837 127.575 28.8013 127.113 28.095C126.879 27.7389 126.603 27.7143 126.207 27.9463C125.165 28.5571 124.089 29.0978 123.043 29.7011C122.688 29.9059 122.457 29.8699 122.149 29.6137C119.709 27.5762 117.313 25.5377 114.785 23.6144C113.143 22.3659 111.305 21.2073 109.553 20.3309C109.213 20.3309 108.873 20.3309 108.533 20.3309C107.395 20.9152 106.579 21.8097 105.917 22.8937C104.88 24.5939 104.219 26.4223 103.641 28.3141C102.675 31.4731 101.9 34.6438 102.112 37.9939C102.202 39.4121 102.695 40.6352 103.812 41.4824C105.126 42.4791 106.483 43.4531 107.934 44.2246C111.982 46.3763 116.084 48.425 120.179 50.4886C120.694 50.748 120.918 51.0129 120.917 51.6273ZM108.655 36.9405C108.185 36.6881 108.037 36.3405 108.192 35.9031C108.711 34.4273 109.211 32.9393 109.84 31.509C110.223 30.64 110.858 30.4363 111.801 30.6151C113.313 30.9011 114.623 31.658 115.914 32.4377C117.259 33.2495 118.537 34.177 119.906 34.9432C121.907 36.0629 123.045 37.8221 123.776 39.8935C124.17 41.0071 124.44 42.1648 124.765 43.3026C124.728 43.3166 124.693 43.3307 124.656 43.3444C124.62 43.5524 124.613 43.7694 124.544 43.9663C124.235 44.8672 123.872 45.0659 123.031 44.6332C120.048 43.0978 117.079 41.5373 114.121 39.9561C112.286 38.9757 110.488 37.9252 108.655 36.9405Z" fill="#29ABE2" />
<path fill-rule="evenodd" clip-rule="evenodd" d="M127.492 92.9944C127.439 92.8299 127.398 92.6587 127.365 92.4855H120.847C120.832 92.5623 120.815 92.6377 120.791 92.7107C119.851 95.5741 118.888 98.4296 117.958 101.296C117.84 101.66 117.795 102.088 117.855 102.463C118.258 104.999 118.704 107.529 119.125 110.062C119.685 113.434 120.244 116.805 120.78 120.18C120.864 120.705 121.049 120.953 121.616 120.944C123.293 120.918 124.97 120.932 126.648 120.934C127.048 120.934 127.296 120.838 127.373 120.355C128.048 116.163 128.695 111.976 129.399 107.789C129.634 106.39 129.813 104.996 130.105 103.599C130.105 102.707 130.105 101.814 130.105 100.922C129.813 100.033 129.481 99.1511 129.176 98.2543C128.583 96.506 128.054 94.7529 127.492 92.9944Z" fill="#29ABE2" />
<path fill-rule="evenodd" clip-rule="evenodd" d="M130.5 103.599C130.247 104.995 129.978 106.389 129.743 107.789C129.039 111.975 128.341 116.162 127.666 120.354C127.588 120.837 127.341 120.934 126.94 120.933C125.263 120.932 123.585 120.917 121.908 120.943C121.342 120.952 121.156 120.704 121.073 120.18C120.537 116.804 119.977 113.433 119.417 110.062C118.996 107.528 118.55 104.999 118.147 102.462C118.088 102.087 118.133 101.66 118.251 101.296C119.181 98.4294 120.143 95.5736 121.083 92.7102C121.167 92.4555 121.188 92.1698 121.188 91.899C121.194 78.4751 121.188 65.0511 121.209 51.6272C121.21 51.0129 120.986 50.7461 120.471 50.4867C116.377 48.4232 112.274 46.3728 108.227 44.221C106.775 43.4492 105.419 42.472 104.104 41.4753C102.988 40.6279 102.494 39.398 102.404 37.9795C102.193 34.6294 102.967 31.4441 103.933 28.2854C104.511 26.3936 105.173 24.5363 106.21 22.8358C106.871 21.7517 107.688 20.8225 108.826 20.2146C109.166 20.2146 109.506 20.2146 109.845 20.2146C111.597 21.3194 113.438 22.3077 115.079 23.5565C117.608 25.4795 120.004 27.5764 122.445 29.6137C122.753 29.8701 122.987 29.9058 123.342 29.701C124.388 29.0981 125.471 28.5571 126.513 27.9465C126.908 27.7146 127.198 27.7391 127.431 28.0952C127.893 28.8013 128.429 29.4837 128.75 30.2531C129.399 31.8098 129.925 33.4177 130.501 35.0045C130.501 39.382 130.501 43.7594 130.501 48.1369C130.423 48.3288 130.33 48.5161 130.272 48.7136C129.792 50.3293 129.237 51.9219 128.169 53.2485C127.704 53.8263 127.57 54.4015 127.571 55.109C127.585 67.344 127.579 79.579 127.589 91.8137C127.589 92.2081 127.664 92.6173 127.785 92.9942C128.347 94.7527 128.927 96.5058 129.521 98.2538C129.825 99.1504 130.173 100.033 130.501 100.922C130.5 101.814 130.5 102.706 130.5 103.599ZM124.948 43.3449C124.985 43.3309 125.021 43.3172 125.057 43.3028C124.732 42.165 124.462 41.0076 124.069 39.8938C123.337 37.8226 122.199 36.0634 120.198 34.9434C118.829 34.1772 117.55 33.25 116.206 32.4376C114.916 31.6582 113.605 30.901 112.094 30.6151C111.15 30.4363 110.515 30.6399 110.132 31.509C109.504 32.9392 109.003 34.427 108.484 35.9031C108.33 36.3407 108.477 36.688 108.947 36.9404C110.78 37.9249 112.578 38.9756 114.413 39.9563C117.371 41.5375 120.341 43.0981 123.323 44.6332C124.164 45.0658 124.528 44.8672 124.837 43.9665C124.905 43.77 124.913 43.5526 124.948 43.3449Z" stroke="#021A63" stroke-width="3" stroke-miterlimit="10" stroke-linecap="round" stroke-linejoin="round" />
<path fill-rule="evenodd" clip-rule="evenodd" d="M28.7561 94.9289C29.0173 94.4075 29.2124 93.8366 29.5551 93.3766C30.0558 92.7032 30.7569 92.3217 31.6437 92.3559C32.9785 92.4082 34.3266 92.3383 35.6458 92.5057C37.145 92.6956 38.1993 94.1036 38.199 95.6192C38.1978 102.949 38.1999 110.278 38.1999 117.608C38.1999 119.287 37.1167 120.646 35.4606 120.826C34.2235 120.961 32.9615 120.934 31.7136 120.891C30.4405 120.848 29.5019 120.221 28.9886 119.019C28.9317 118.886 28.8347 118.769 28.7561 118.644C28.7561 110.739 28.7561 102.834 28.7561 94.9289Z" stroke="#021A63" stroke-width="3" stroke-miterlimit="10" stroke-linecap="round" stroke-linejoin="round" />
<path fill-rule="evenodd" clip-rule="evenodd" d="M31.8389 89.0482C32.1491 86.6347 32.4567 84.3015 32.7474 81.9659C33.466 76.1924 34.1992 70.4209 34.8676 64.6413C34.9701 63.7553 35.4244 63.3764 36.1284 63.0323C40.2164 61.0321 44.5132 59.6673 48.962 58.7553C57.643 56.976 66.3786 56.7805 75.1382 57.9955C80.6982 58.767 86.0683 60.2264 91.0829 62.8535C92.0814 63.377 92.5415 63.9872 92.6726 65.1516C93.3474 71.1437 94.135 77.1228 94.8837 83.1067C95.1285 85.0621 95.3745 87.0176 95.6295 89.0461C94.6681 89.0894 93.7395 89.1916 92.8155 89.1621C89.5644 89.059 87.6017 90.8246 86.3061 93.5746C86.1863 93.8285 86.1682 94.1478 86.1668 94.4373C86.1247 102.999 86.0908 111.56 86.0549 120.121C86.0514 120.995 86.049 120.997 85.2027 120.997C70.884 120.997 56.5656 120.997 42.2469 120.997C41.4071 120.997 41.4068 120.995 41.4036 120.17C41.3717 111.758 41.3329 103.345 41.3194 94.9324C41.318 94.1425 41.1739 93.4353 40.7752 92.7541C39.4849 90.5497 37.71 89.1618 35.0315 89.1758C33.9784 89.1823 32.9244 89.0949 31.8389 89.0482ZM73.3125 101.904C73.4766 96.8043 68.6435 92.3311 63.9444 92.2823C58.6897 92.2273 54.1574 96.8257 54.1343 101.82C54.1106 106.865 58.6561 111.416 63.7253 111.453C68.6946 111.49 73.4582 106.817 73.3125 101.904ZM63.8854 76.3741C60.1284 76.3741 56.3717 76.3729 52.6147 76.377C52.3851 76.377 52.1277 76.3592 51.9311 76.4518C51.3027 76.7472 50.8748 77.6536 51.0258 78.2717C51.2177 79.0573 51.8522 79.5661 52.6468 79.5661C60.0331 79.5664 67.4195 79.5568 74.8061 79.5831C75.4803 79.5851 75.924 79.3801 76.2825 78.8405C76.562 78.4207 76.8755 78.0018 76.5328 77.5087C76.1633 76.9773 75.9115 76.3461 75.0281 76.3563C71.314 76.3981 67.5994 76.3738 63.8854 76.3741ZM63.6341 66.8889C63.6338 66.8538 63.6338 66.8185 63.6338 66.7834C61.0217 66.7834 58.4095 66.7831 55.7971 66.7834C54.9791 66.7837 54.1647 67.5757 54.1579 68.3755C54.1512 69.1809 54.9511 69.9649 55.7868 69.9646C60.0769 69.9641 64.3668 69.9702 68.6569 69.9535C69.802 69.9492 70.9501 69.9115 72.0917 69.8209C72.9137 69.7552 73.4419 69.0059 73.3373 68.1967C73.2371 67.424 72.6894 66.9079 71.787 66.8988C69.0697 66.8708 66.3518 66.8889 63.6341 66.8889Z" stroke="#021A63" stroke-width="3" stroke-miterlimit="10" stroke-linecap="round" stroke-linejoin="round" />
<path d="M35.0015 60.2036C35.1875 58.9189 35.3468 57.6811 35.5486 56.4507C36.418 51.1504 37.3589 45.8615 38.1587 40.551C38.8584 35.9083 41.4098 32.5699 45.1951 30.0439C48.8209 27.6249 52.8882 26.4286 57.1646 25.8289C62.2367 25.1176 67.3009 25.2847 72.3278 26.1298C76.9956 26.9147 81.3459 28.5471 85.0194 31.6641C86.7011 33.0911 88.1401 34.7188 89.164 36.6962C90.017 38.3426 90.2127 40.1494 90.4225 41.9316C91.1341 47.9838 91.7701 54.0448 92.4338 60.1028C92.4381 60.1417 92.4191 60.1829 92.4156 60.2016M47.7158 44.3562C58.463 44.3562 69.0262 44.3562 79.5742 44.3562C79.597 44.2163 79.6186 44.1698 79.6069 44.1348C79.566 44.015 79.5228 43.8947 79.4649 43.7825C77.2913 39.5847 73.867 36.9325 69.3604 35.6293C67.3602 35.0509 65.2981 34.9951 63.2369 34.9867C58.1946 34.9665 53.8282 36.593 50.3593 40.3512C49.3035 41.4949 48.5186 42.8202 47.7158 44.3562Z" stroke="#021A63" stroke-width="3" stroke-miterlimit="10" stroke-linecap="round" stroke-linejoin="round" />
<path fill-rule="evenodd" clip-rule="evenodd" d="M98.8653 106.676C98.8645 110.35 98.8645 114.025 98.8645 117.7C98.8645 119.176 97.7386 120.655 96.2759 120.795C94.8294 120.934 93.3489 120.94 91.9026 120.802C90.3742 120.657 89.289 119.23 89.289 117.675C89.2881 110.347 89.3056 103.018 89.2749 95.6904C89.2688 94.2163 90.5334 92.5059 92.0819 92.4136C93.4932 92.3298 94.9304 92.3409 96.332 92.5112C97.7798 92.6876 98.8636 94.1313 98.8647 95.5875C98.8685 99.2835 98.8659 102.98 98.8653 106.676Z" stroke="#021A63" stroke-width="3" stroke-miterlimit="10" stroke-linecap="round" stroke-linejoin="round" />
<path d="M105.09 20.7468C100.932 18.2322 90.3137 12.3094 79.9176 10.5537C71.2375 9.08786 64.9808 8.75192 58.9978 9.42994C52.7946 10.1328 46.6585 11.9886 39.1025 15.4471C33.1785 18.1583 27.263 22.8261 21.9955 28.9452C15.8603 36.0724 10.9967 44.6682 7.53975 54.4931C4.07166 64.3494 2.11823 74.9462 1.89067 85.1383C1.67742 94.6966 3.03637 102.965 5.71806 108.42C8.25252 113.577 13.1003 117.154 19.7368 118.768C22.2718 119.384 24.6044 119.602 26.2824 119.668" stroke="#021A63" stroke-width="3" stroke-miterlimit="10" stroke-linecap="round" stroke-linejoin="round" />
<path d="M26.2824 115.71C24.8019 115.644 22.7585 115.444 20.5685 114.902C15.0845 113.546 11.2813 110.778 9.26508 106.676C4.77398 97.5395 3.94961 76.6048 11.2682 55.8044C14.561 46.4457 19.1783 38.2765 24.9909 31.5235C29.8195 25.9144 35.4151 21.4811 40.7475 19.0407C47.9071 15.7637 53.6731 14.0107 59.4431 13.3569C65.0384 12.723 70.9647 13.0502 79.2598 14.4509C88.8485 16.0701 99.0123 21.7166 102.989 24.1024" stroke="#021A63" stroke-width="3" stroke-miterlimit="10" stroke-linecap="round" stroke-linejoin="round" />
<path d="M16.469 24.1285V27.9261" stroke="#021A63" stroke-width="3" stroke-miterlimit="10" stroke-linecap="round" stroke-linejoin="round" />
<path d="M16.469 12.7357V16.5333" stroke="#021A63" stroke-width="3" stroke-miterlimit="10" stroke-linecap="round" stroke-linejoin="round" />
<path d="M12.9636 20.3309H9.16602" stroke="#021A63" stroke-width="3" stroke-miterlimit="10" stroke-linecap="round" stroke-linejoin="round" />
<path d="M24.3564 20.3309H20.5588" stroke="#021A63" stroke-width="3" stroke-miterlimit="10" stroke-linecap="round" stroke-linejoin="round" />
<path d="M107.904 74.3737V78.1713" stroke="#021A63" stroke-width="3" stroke-miterlimit="10" stroke-linecap="round" stroke-linejoin="round" />
<path d="M107.904 62.9808V66.7784" stroke="#021A63" stroke-width="3" stroke-miterlimit="10" stroke-linecap="round" stroke-linejoin="round" />
<path d="M104.398 70.576H100.601" stroke="#021A63" stroke-width="3" stroke-miterlimit="10" stroke-linecap="round" stroke-linejoin="round" />
<path d="M115.791 70.576H111.993" stroke="#021A63" stroke-width="3" stroke-miterlimit="10" stroke-linecap="round" stroke-linejoin="round" />
<path d="M20.2666 85.7665V89.5641" stroke="#021A63" stroke-width="3" stroke-miterlimit="10" stroke-linecap="round" stroke-linejoin="round" />
<path d="M20.2666 74.3737V78.1713" stroke="#021A63" stroke-width="3" stroke-miterlimit="10" stroke-linecap="round" stroke-linejoin="round" />
<path d="M16.7612 81.9689H12.9636" stroke="#021A63" stroke-width="3" stroke-miterlimit="10" stroke-linecap="round" stroke-linejoin="round" />
<path d="M28.154 81.9689H24.3564" stroke="#021A63" stroke-width="3" stroke-miterlimit="10" stroke-linecap="round" stroke-linejoin="round" />
</symbol><symbol viewBox="0 0 141 132" fill="none" id="icon-features-timing">
<path d="M75.0922 131.816C111.492 131.816 141 102.308 141 65.9079C141 29.508 111.492 0 75.0922 0C38.6923 0 9.18433 29.508 9.18433 65.9079C9.18433 102.308 38.6923 131.816 75.0922 131.816Z" fill="#E8F5FF" />
<path d="M76.0836 81.9841C78.1695 81.9841 79.8605 80.2931 79.8605 78.2071C79.8605 76.1212 78.1695 74.4302 76.0836 74.4302C73.9976 74.4302 72.3066 76.1212 72.3066 78.2071C72.3066 80.2931 73.9976 81.9841 76.0836 81.9841Z" fill="#29ABE2" />
<path d="M75.5029 34.8859C50.8937 34.8859 30.8727 54.989 30.8727 79.6986C30.8727 104.409 50.8937 124.512 75.5029 124.512C100.112 124.512 120.134 104.409 120.134 79.6986C120.133 54.9887 100.112 34.8859 75.5029 34.8859ZM75.5029 117.433C54.7967 117.433 37.951 100.505 37.951 79.6986C37.951 58.8918 54.7967 41.9642 75.5029 41.9642C96.209 41.9642 113.055 58.8918 113.055 79.6986C113.055 100.505 96.209 117.433 75.5029 117.433Z" fill="#29ABE2" />
<path d="M67.361 21.1881H80.3155C82.9802 21.1881 85.1599 19.0147 85.1599 16.4856C85.1599 13.9565 82.9802 11.7831 80.3155 11.7831H67.361C64.6966 11.7831 62.5166 13.9565 62.5166 16.4856C62.5166 19.0147 64.6966 21.1881 67.361 21.1881Z" fill="#29ABE2" />
<path d="M80.8358 24.7841H69.4945V30.3164H80.8358V24.7841Z" fill="#29ABE2" />
<path d="M40.4497 33.3591V37.2318" stroke="#021A63" stroke-width="3" stroke-miterlimit="10" stroke-linecap="round" stroke-linejoin="round" />
<path d="M40.4497 21.7413V25.614" stroke="#021A63" stroke-width="3" stroke-miterlimit="10" stroke-linecap="round" stroke-linejoin="round" />
<path d="M36.5771 29.4866H32.7045" stroke="#021A63" stroke-width="3" stroke-miterlimit="10" stroke-linecap="round" stroke-linejoin="round" />
<path d="M48.195 29.4866H44.3224" stroke="#021A63" stroke-width="3" stroke-miterlimit="10" stroke-linecap="round" stroke-linejoin="round" />
<path d="M117.073 25.6139V30.3164" stroke="#021A63" stroke-width="3" stroke-miterlimit="10" stroke-linecap="round" stroke-linejoin="round" />
<path d="M117.073 12.0597V16.4856" stroke="#021A63" stroke-width="3" stroke-miterlimit="10" stroke-linecap="round" stroke-linejoin="round" />
<path d="M112.647 21.188H107.944" stroke="#021A63" stroke-width="3" stroke-miterlimit="10" stroke-linecap="round" stroke-linejoin="round" />
<path d="M126.478 21.188H121.775" stroke="#021A63" stroke-width="3" stroke-miterlimit="10" stroke-linecap="round" stroke-linejoin="round" />
<path d="M100.952 117.55C94.0005 121.68 85.8818 124.052 77.2085 124.052C51.5006 124.052 30.6605 103.212 30.6605 77.5044C30.6605 51.7968 51.5006 30.9562 77.2085 30.9562C102.916 30.9562 123.756 51.7968 123.756 77.5044C123.756 85.5379 121.721 93.0965 118.139 99.6919" stroke="#021A63" stroke-width="3" stroke-miterlimit="10" stroke-linecap="round" stroke-linejoin="round" />
<path d="M114.99 104.7C113.071 107.361 110.879 109.81 108.454 112.008" stroke="#021A63" stroke-width="3" stroke-miterlimit="10" stroke-linecap="round" stroke-linejoin="round" />
<path d="M77.4257 113.372C97.2255 113.372 113.276 97.3208 113.276 77.5211C113.276 57.7213 97.2255 41.6704 77.4257 41.6704C57.626 41.6704 41.5751 57.7213 41.5751 77.5211C41.5751 97.3208 57.626 113.372 77.4257 113.372Z" stroke="#021A63" stroke-width="3" stroke-miterlimit="10" stroke-linecap="round" stroke-linejoin="round" />
<path d="M92.2565 14.9641C92.2565 18.3516 89.3363 21.188 85.7679 21.188H68.4155C64.8468 21.188 61.9269 18.3516 61.9269 14.9641C61.9269 11.5767 64.8468 8.74023 68.4155 8.74023H85.7679C89.3363 8.74023 92.2565 11.5767 92.2565 14.9641Z" stroke="#021A63" stroke-width="3" stroke-miterlimit="10" stroke-linecap="round" stroke-linejoin="round" />
<path d="M68.9413 22.2944V30.3163" stroke="#021A63" stroke-width="3" stroke-miterlimit="10" stroke-linecap="round" stroke-linejoin="round" />
<path d="M85.2617 22.2944V30.3163" stroke="#021A63" stroke-width="3" stroke-miterlimit="10" stroke-linecap="round" stroke-linejoin="round" />
<path d="M77.2885 82.7768C80.3239 82.7768 82.7846 80.3161 82.7846 77.2807C82.7846 74.2452 80.3239 71.7845 77.2885 71.7845C74.253 71.7845 71.7924 74.2452 71.7924 77.2807C71.7924 80.3161 74.253 82.7768 77.2885 82.7768Z" stroke="#021A63" stroke-width="3" stroke-miterlimit="10" stroke-linecap="round" stroke-linejoin="round" />
<path d="M82.1155 72.792L94.517 60.2861" stroke="#021A63" stroke-width="3" stroke-miterlimit="10" stroke-linecap="round" stroke-linejoin="round" />
<path d="M66.1013 66.6746L72.5764 72.8758" stroke="#021A63" stroke-width="3" stroke-miterlimit="10" stroke-linecap="round" stroke-linejoin="round" />
<path d="M77.2397 49.9562V54.382" stroke="#021A63" stroke-width="3" stroke-miterlimit="10" stroke-linecap="round" stroke-linejoin="round" />
<path d="M77.2397 99.4707V104.726" stroke="#021A63" stroke-width="3" stroke-miterlimit="10" stroke-linecap="round" stroke-linejoin="round" />
<path d="M104.625 77.8945H100.199" stroke="#021A63" stroke-width="3" stroke-miterlimit="10" stroke-linecap="round" stroke-linejoin="round" />
<path d="M54.2806 77.8945H49.8547" stroke="#021A63" stroke-width="3" stroke-miterlimit="10" stroke-linecap="round" stroke-linejoin="round" />
<path d="M38.5135 49.9562H6.70251" stroke="#021A63" stroke-width="3" stroke-miterlimit="10" stroke-linecap="round" stroke-linejoin="round" />
<path d="M30.7682 64.6169H2" stroke="#021A63" stroke-width="3" stroke-miterlimit="10" stroke-linecap="round" stroke-linejoin="round" />
<path d="M28.2786 77.8945H13.8945" stroke="#021A63" stroke-width="3" stroke-miterlimit="10" stroke-linecap="round" stroke-linejoin="round" />
<path d="M30.7682 92.2786H13.8945" stroke="#021A63" stroke-width="3" stroke-miterlimit="10" stroke-linecap="round" stroke-linejoin="round" />
<path d="M8.36214 92.2786H4.21289" stroke="#021A63" stroke-width="3" stroke-miterlimit="10" stroke-linecap="round" stroke-linejoin="round" />
</symbol><symbol viewBox="0 0 183 64" fill="none" id="icon-logo">
<path d="M3.18324 24.2366C4.94129 24.2366 6.36647 22.8114 6.36647 21.0534C6.36647 19.2953 4.94129 17.8701 3.18324 17.8701C1.42518 17.8701 0 19.2953 0 21.0534C0 22.8114 1.42518 24.2366 3.18324 24.2366Z" fill="#29A9E0" />
<path d="M57.4651 13.0898C59.9938 13.0898 62.0437 11.0399 62.0437 8.51123C62.0437 5.98253 59.9938 3.93262 57.4651 3.93262C54.9364 3.93262 52.8865 5.98253 52.8865 8.51123C52.8865 11.0399 54.9364 13.0898 57.4651 13.0898Z" fill="#29A9E0" />
<path d="M15.3067 23.6592C18.175 23.6592 20.5003 21.3339 20.5003 18.4655C20.5003 15.5972 18.175 13.272 15.3067 13.272C12.4383 13.272 10.113 15.5972 10.113 18.4655C10.113 21.3339 12.4383 23.6592 15.3067 23.6592Z" fill="#29A9E0" />
<path d="M26.6333 13.271C30.2979 13.271 33.2688 10.3002 33.2688 6.63551C33.2688 2.97083 30.2979 0 26.6333 0C22.9686 0 19.9978 2.97083 19.9978 6.63551C19.9978 10.3002 22.9686 13.271 26.6333 13.271Z" fill="#29A9E0" />
<path d="M73.0924 30.9415L70.4297 27.426C70.4297 27.426 82.2123 20.7493 96.3482 22.9099C109.308 25.2662 113.038 30.9415 113.038 30.9415H73.0924V30.9415Z" fill="#63CEF5" />
<path d="M10.113 33.9281C12.3395 33.9281 14.1444 32.1232 14.1444 29.8967C14.1444 27.6702 12.3395 25.8652 10.113 25.8652C7.88646 25.8652 6.08154 27.6702 6.08154 29.8967C6.08154 32.1232 7.88646 33.9281 10.113 33.9281Z" fill="#29A9E0" />
<path d="M37.5914 42.1807L33.4328 63.5709H27.9167L30.0872 52.2959L23.0645 61.463H20.4438L16.6158 52.2959L14.3859 63.5709H8.89966L13.1193 42.1807H17.9715L22.9144 54.5569L32.4984 42.1807H37.5914Z" fill="currentColor" />
<path d="M41.9765 62.8081C40.3998 62.0147 39.1842 60.9028 38.3299 59.477C37.4756 58.0511 37.0489 56.421 37.0489 54.5889C37.0489 52.1434 37.6059 49.9433 38.7209 47.9877C39.8366 46.0322 41.3935 44.5043 43.3932 43.403C45.3922 42.3041 47.667 41.7539 50.2192 41.7539C52.3493 41.7539 54.2027 42.1509 55.7802 42.9443C57.3577 43.7391 58.5724 44.8495 59.4267 46.2761C60.281 47.702 60.7086 49.3321 60.7086 51.1649C60.7086 53.6104 60.1507 55.8106 59.0358 57.7661C57.9209 59.7216 56.3632 61.2488 54.3642 62.3493C52.3645 63.449 50.0889 63.9999 47.5375 63.9999C45.4074 63.9999 43.5533 63.6029 41.9765 62.8081ZM51.546 57.9795C52.5504 57.3081 53.3247 56.4065 53.8666 55.2748C54.41 54.1454 54.6805 52.8979 54.6805 51.533C54.6805 50.0866 54.2431 48.9297 53.3689 48.0632C52.4956 47.1982 51.2747 46.7654 49.7071 46.7654C48.3811 46.7654 47.2151 47.1015 46.2107 47.7729C45.2062 48.4458 44.4327 49.3473 43.8901 50.4775C43.3475 51.6084 43.0762 52.856 43.0762 54.2209C43.0762 55.6673 43.5137 56.8242 44.3878 57.6891C45.2619 58.5556 46.4827 58.9885 48.0496 58.9885C49.3764 58.9885 50.5408 58.6516 51.546 57.9795Z" fill="currentColor" />
<path d="M64.3551 42.1807H70.3223L66.1026 63.5709H60.1355L64.3551 42.1807Z" fill="currentColor" />
<path d="M82.9212 52.0208L90.0032 63.571H83.3426L78.4904 55.8709L75.7484 58.3759L74.7226 63.5702H68.8462L73.0643 42.18H78.9423L77.2245 50.9204L86.7476 42.18H93.7702L82.9212 52.0208Z" fill="currentColor" />
<path d="M104.2 59.4152H95.2174L92.7765 63.5709H86.477L100.01 42.1807H105.888L110.982 63.5709H105.044L104.2 59.4152ZM103.295 54.9548L101.878 48.0175L97.8397 54.9548H103.295Z" fill="currentColor" />
<path d="M112.246 50.4922H121.018L120.143 54.9542H111.373L112.246 50.4922Z" fill="currentColor" />
<path d="M125.025 42.1806H130.993L127.737 58.7736H137.805L136.84 63.5709H120.807L125.025 42.1806Z" fill="currentColor" />
<path d="M143.019 63.068C141.693 62.4462 140.677 61.556 139.975 60.3931C139.271 59.2324 138.919 57.8676 138.919 56.2984C138.919 55.6468 138.999 54.8931 139.16 54.0373L141.512 42.18H147.479L145.158 53.9451C145.037 54.557 144.977 55.1179 144.977 55.6255C144.977 57.8668 146.142 58.9878 148.474 58.9878C149.739 58.9878 150.739 58.5961 151.472 57.8104C152.205 57.0277 152.753 55.7383 153.115 53.9451L155.435 42.18H161.313L158.932 54.3124C157.645 60.7711 153.919 63.9993 147.75 63.9993C145.921 64 144.345 63.6891 143.019 63.068Z" fill="currentColor" />
<path d="M182.055 43.6126H175.343L171.228 48.3238L168.154 42.1806H161.795L167.189 52.5092L157.154 63.5717H164.297L169.812 57.1549L173.006 63.5717H179.456L173.73 52.8453L182.055 43.6126Z" fill="currentColor" />
<path d="M71.7009 34.4998H65.6889L64.6867 39.7101H70.6996L71.7009 34.4998Z" fill="currentColor" />
<path d="M176.649 36.3898C176.319 36.3898 176.002 36.4347 175.69 36.4873C174.881 35.5606 173.708 34.9624 172.382 34.9624C172.034 34.9624 171.697 35.0134 171.37 35.0904C171.372 35.0234 171.391 34.9601 171.391 34.8908C171.391 31.6359 168.753 28.9991 165.5 28.9991C163.936 28.9991 162.522 29.6202 161.466 30.617C160.298 28.964 158.378 27.8834 156.2 27.8834C154.798 27.8834 153.503 28.3361 152.445 29.0966C151.717 25.572 148.595 22.9207 144.855 22.9207C142.425 22.9207 140.254 24.0432 138.835 25.7937C137.705 24.8183 136.236 24.2231 134.624 24.2231C132.744 24.2231 131.056 25.034 129.876 26.3188C128.36 23.65 125.494 21.8446 122.205 21.8446C121.496 21.8446 120.814 21.9368 120.154 22.0946C118.7 19.2146 115.725 17.2363 112.279 17.2363C111.37 17.2363 110.493 17.375 109.665 17.6303C109.537 12.868 105.645 9.04459 100.851 9.04459C98.992 9.04459 97.2682 9.62304 95.8454 10.6054C94.5521 8.35493 92.1302 6.83838 89.3501 6.83838C86.8558 6.83838 84.6526 8.06077 83.2892 9.93398C81.8946 9.03777 80.2378 8.51116 78.4561 8.51116C75.9168 8.51116 73.629 9.57196 71.9989 11.2691C71.1492 10.9894 70.2423 10.8332 69.2989 10.8332C65.9556 10.8332 63.0619 12.7338 61.6269 15.5124C60.624 15.0376 59.5083 14.7633 58.3233 14.7633C56.9744 14.7633 55.7093 15.1108 54.6058 15.719C53.0633 13.2765 50.3473 11.6502 47.2456 11.6502C45.3244 11.6502 43.5548 12.2797 42.116 13.3329C40.9911 11.8049 39.1835 10.8073 37.1411 10.8073C34.4761 10.8073 32.2104 12.5014 31.3462 14.8685C30.9445 14.8067 30.5376 14.7633 30.12 14.7633C25.7273 14.7633 22.1653 18.3246 22.1653 22.7187C22.1653 23.3589 22.2491 23.9777 22.3917 24.5752C18.6102 25.652 15.8354 29.1248 15.8354 33.2538C15.8354 38.2409 19.8798 42.2838 24.8662 42.2838C25.5505 42.2838 26.2166 42.2053 26.8575 42.0612L30.12 29.9799C47.0726 28.3383 58.0002 25.463 58.0002 25.463C68.1039 20.0484 79.7509 18.3344 88.4646 17.9176C96.1327 17.5518 103.745 19.396 110.458 23.1249L122.794 29.9799C157.548 32.5329 176.79 40.5821 176.79 40.5821L176.079 42.1839H182.404C182.404 42.1702 182.405 42.1588 182.405 42.1451C182.402 38.9656 179.827 36.3898 176.649 36.3898Z" fill="#29A9E0" />
<path d="M29.5614 2.4661C28.7216 1.86481 27.6966 1.50586 26.5847 1.50586C23.7597 1.50586 21.4666 3.79823 21.4666 6.62557C21.4666 7.80223 21.8666 8.88132 22.5342 9.74629C22.8917 5.97091 25.8287 2.95536 29.5614 2.4661Z" fill="#63CEF5" />
<path d="M49.3124 14.0491C48.4726 13.4478 47.4476 13.0889 46.3357 13.0889C43.5106 13.0889 41.2175 15.3812 41.2175 18.2093C41.2175 19.3852 41.6176 20.4651 42.2852 21.3293C42.6426 17.5547 45.5797 14.5399 49.3124 14.0491Z" fill="#63CEF5" />
<path d="M59.8749 5.80351C59.2652 5.36607 58.5199 5.10547 57.7121 5.10547C55.6605 5.10547 53.9946 6.77063 53.9946 8.82445C53.9946 9.67875 54.2858 10.4629 54.7704 11.0909C55.0303 8.34891 57.1634 6.1594 59.8749 5.80351Z" fill="#63CEF5" />
<path d="M34.938 16.3846C36.2198 14.6631 38.1609 13.4628 40.393 13.1702C39.5532 12.5681 38.5282 12.21 37.4163 12.21C35.3373 12.21 33.551 13.4537 32.7493 15.2354C33.5822 15.4983 34.3108 15.8931 34.938 16.3846Z" fill="#63CEF5" />
<path d="M17.6791 15.2294C17.0123 14.7509 16.1961 14.4658 15.3113 14.4658C13.0647 14.4658 11.2402 16.2895 11.2402 18.5384C11.2402 19.475 11.5588 20.3331 12.0892 21.0213C12.3735 18.0171 14.7108 15.6196 17.6791 15.2294Z" fill="#63CEF5" />
<path d="M11.836 27.2714C11.3467 26.92 10.7477 26.7112 10.0984 26.7112C8.45004 26.7112 7.11182 28.0487 7.11182 29.6993C7.11182 30.3852 7.34579 31.0162 7.73445 31.5207C7.94327 29.316 9.65793 27.5571 11.836 27.2714Z" fill="#63CEF5" />
<path d="M4.62433 19.2962C4.23947 19.0211 3.77002 18.8564 3.26018 18.8564C1.96616 18.8564 0.916016 19.9066 0.916016 21.2014C0.916016 21.7402 1.09892 22.2348 1.40527 22.6311C1.56912 20.9019 2.9142 19.521 4.62433 19.2962Z" fill="#63CEF5" />
<path d="M32.9061 17.4312C31.9436 16.7416 30.7685 16.3308 29.4936 16.3308C26.2547 16.3308 23.6262 18.9585 23.6262 22.2004C23.6262 23.5493 24.085 24.7869 24.8509 25.7769C25.2609 21.4498 28.6278 17.9921 32.9061 17.4312Z" fill="#63CEF5" />
<path d="M28.81 27.9786C27.7012 27.1837 26.347 26.7104 24.8777 26.7104C21.1465 26.7104 18.1172 29.7382 18.1172 33.4732C18.1172 35.0271 18.6453 36.4537 19.5294 37.5953C19.9996 32.609 23.8793 28.6256 28.81 27.9786Z" fill="#63CEF5" />
</symbol><symbol viewBox="0 0 16 14" fill="none" id="icon-menu">
<path d="M0 9.85706H16V7.9523H0V9.85706ZM0 13.6666H16V11.7618H0V13.6666ZM0 6.04754H16V4.14278H0V6.04754ZM0 0.333252V2.23801H16V0.333252H0Z" fill="white" />
</symbol><symbol viewBox="0 0 22 22" fill="none" id="icon-phone">
<path d="M21.9242 16.5927C21.6685 16.3202 20.7654 15.5147 19.1053 14.449C17.4329 13.3739 16.1996 12.7036 15.8458 12.5473C15.8147 12.5335 15.7803 12.5284 15.7465 12.5326C15.7126 12.5369 15.6806 12.5502 15.6538 12.5713C15.0839 13.0157 14.1245 13.8321 14.073 13.8762C13.7408 14.1609 13.7408 14.1609 13.4689 14.0722C12.9906 13.9154 11.505 13.1265 10.2104 11.829C8.91584 10.5315 8.08627 9.00908 7.92948 8.53134C7.83981 8.2589 7.83981 8.2589 8.12547 7.92669C8.16957 7.87524 8.9864 6.91583 9.43082 6.34646C9.4519 6.31965 9.46527 6.2876 9.4695 6.25376C9.47373 6.21992 9.46866 6.18556 9.45483 6.15439C9.29852 5.80012 8.62821 4.5673 7.55316 2.89496C6.48595 1.23536 5.68138 0.332303 5.40894 0.0765269C5.38394 0.0529353 5.35304 0.0365236 5.31949 0.0290212C5.28595 0.0215188 5.251 0.0232035 5.21833 0.0338977C4.26601 0.361156 3.34717 0.778733 2.47435 1.28093C1.63177 1.77074 0.834065 2.33396 0.0905266 2.96405C0.0645714 2.98611 0.0451122 3.01483 0.0342357 3.04711C0.0233592 3.0794 0.0214757 3.11403 0.0287872 3.14731C0.131196 3.62456 0.620702 5.61687 2.13969 8.3765C3.68954 11.193 4.76361 12.636 7.03964 14.9042C9.31567 17.1723 10.8043 18.3111 13.6237 19.8609C16.3834 21.3799 18.3767 21.8699 18.8529 21.9713C18.8863 21.9786 18.921 21.9767 18.9533 21.9658C18.9857 21.9549 19.0145 21.9355 19.0367 21.9096C19.6667 21.1661 20.2297 20.3684 20.7193 19.5258C21.2214 18.6529 21.639 17.7341 21.9664 16.7818C21.9769 16.7494 21.9785 16.7148 21.9711 16.6815C21.9636 16.6483 21.9475 16.6176 21.9242 16.5927Z" fill="currentColor" />
</symbol><symbol viewBox="0 0 16 22" fill="none" id="icon-placemark">
<path d="M8.00004 0.902344C3.87976 0.902344 0.536621 3.93679 0.536621 7.67586C0.536621 13.6968 8.00004 21.9755 8.00004 21.9755C8.00004 21.9755 15.4635 13.6968 15.4635 7.67586C15.4635 3.93679 12.1203 0.902344 8.00004 0.902344ZM8.00004 11.4389C7.40959 11.4389 6.8324 11.2624 6.34146 10.9316C5.85051 10.6008 5.46787 10.1306 5.24192 9.58053C5.01596 9.03044 4.95684 8.42514 5.07203 7.84117C5.18722 7.2572 5.47155 6.72078 5.88906 6.29976C6.30657 5.87875 6.83852 5.59203 7.41762 5.47587C7.99672 5.35971 8.59698 5.41933 9.14249 5.64718C9.68799 5.87503 10.1542 6.26089 10.4823 6.75596C10.8103 7.25102 10.9854 7.83307 10.9854 8.42848C10.9845 9.22663 10.6697 9.99185 10.1101 10.5562C9.55038 11.1206 8.79154 11.4381 8.00004 11.4389Z" fill="currentColor" />
</symbol><symbol viewBox="0 0 18 18" fill="none" id="icon-social-tg">
<path fill-rule="evenodd" clip-rule="evenodd" d="M0.692383 8.99997C0.692383 4.41175 4.41174 0.692383 8.99997 0.692383C13.5882 0.692383 17.3076 4.41175 17.3076 8.99997C17.3076 13.5884 13.5882 17.3078 8.99997 17.3078C4.41174 17.3078 0.692383 13.5884 0.692383 8.99997ZM8.25845 12.6047C8.36558 12.5066 8.47392 12.4074 8.58433 12.3069C8.7715 12.4509 8.95621 12.5941 9.13959 12.7363C9.55597 13.0592 9.96551 13.3768 10.3814 13.6855C10.9671 14.1195 11.735 13.8293 11.8769 13.116C12.2099 11.4421 12.5365 9.76708 12.8631 8.09194C12.9787 7.49901 13.0943 6.90607 13.2102 6.31317C13.2256 6.23382 13.243 6.15452 13.2603 6.07519C13.305 5.87116 13.3497 5.66692 13.3614 5.46106C13.3896 4.96519 12.9549 4.45463 12.1742 4.7848C10.4729 5.50414 8.77046 6.22095 7.06806 6.93773C5.93773 7.41364 4.80743 7.88955 3.67752 8.36618C3.35687 8.50147 3.10697 8.71744 3.11752 9.09229C3.12786 9.45949 3.37922 9.67278 3.69325 9.81759C3.74055 9.8395 3.79039 9.85595 3.84019 9.87239C3.85246 9.87644 3.86473 9.88049 3.87695 9.88462C4.01991 9.93247 4.16261 9.98107 4.30531 10.0297C4.66481 10.1521 5.02426 10.2745 5.38753 10.3848C5.58675 10.4455 5.6906 10.5419 5.74977 10.7479C5.96119 11.4815 6.18213 12.2128 6.42562 12.936C6.62815 13.5378 7.0992 13.6489 7.5719 13.2277C7.80079 13.0237 8.02677 12.8168 8.25845 12.6047ZM7.71651 7.5178C9.33198 6.83748 10.9431 6.159 12.5712 5.47348C12.53 5.68781 12.4904 5.89562 12.4516 6.0991C12.3765 6.49326 12.3044 6.8712 12.2305 7.24886C11.9897 8.47568 11.748 9.70232 11.5063 10.929C11.3809 11.5656 11.2554 12.2023 11.1301 12.839C11.072 13.1362 11.0025 13.1662 10.7505 12.9751C10.2848 12.6216 9.82113 12.2655 9.35737 11.9094C9.14783 11.7485 8.93828 11.5875 8.72853 11.4269C8.68457 11.3931 8.63967 11.3604 8.58982 11.324C8.57328 11.3119 8.55619 11.2994 8.53841 11.2864C8.24681 11.551 7.95737 11.8138 7.65289 12.0902C7.48625 12.2415 7.31511 12.3969 7.13664 12.5589C7.15988 12.4033 7.18398 12.255 7.20728 12.1116C7.25843 11.7967 7.30578 11.5053 7.33193 11.2119C7.36627 10.8242 7.54045 10.5516 7.82739 10.2922C8.61702 9.57753 9.39497 8.84991 10.1729 8.1223C10.4656 7.84857 10.7582 7.57484 11.0515 7.30181C11.0617 7.29219 11.0727 7.28303 11.0838 7.27388C11.1094 7.25253 11.1351 7.23118 11.151 7.20396C11.1919 7.13373 11.2283 7.06109 11.2649 6.98835C11.2808 6.95653 11.2968 6.9247 11.3132 6.89304C11.2757 6.90283 11.2365 6.90989 11.1974 6.91695C11.1142 6.93196 11.031 6.94697 10.9638 6.9882C9.54215 7.86099 8.12053 8.73379 6.71152 9.62644C6.4281 9.80601 6.1964 9.85855 5.8712 9.72801C5.45523 9.56119 5.02764 9.42392 4.5767 9.27915C4.38513 9.21765 4.18935 9.15479 3.98845 9.08774C5.24008 8.5607 6.47958 8.03871 7.71651 7.5178Z" fill="#63CEF5" />
</symbol><symbol viewBox="0 0 18 18" fill="none" id="icon-social-wapp">
<path fill-rule="evenodd" clip-rule="evenodd" d="M9.43371 0.715629C9.51705 0.732991 9.60056 0.750389 9.68505 0.757182C14.6437 1.14972 18.0897 5.85001 16.9534 10.6735C15.7636 15.7254 10.4047 18.3307 5.60098 16.1806C5.24168 16.0195 4.93097 16.0001 4.56335 16.1243C3.64014 16.4359 2.71073 16.7287 1.78121 17.0215C1.60768 17.0762 1.43414 17.1309 1.26063 17.1856C1.15296 17.2195 1.04103 17.2405 0.908376 17.2655C0.842214 17.2779 0.770898 17.2913 0.692383 17.3078C0.714566 17.2249 0.733198 17.1515 0.750188 17.0846C0.782666 16.9567 0.809143 16.8524 0.842961 16.7505C0.926614 16.4984 1.00968 16.2461 1.09274 15.9938C1.35822 15.1873 1.62373 14.3808 1.90863 13.5811C2.04135 13.2088 2.0104 12.9053 1.83096 12.5527C-0.514512 7.9396 1.90593 2.41602 6.88619 1.02053C7.27656 0.911083 7.68015 0.84816 8.08374 0.785238C8.27215 0.755864 8.46056 0.72649 8.64762 0.692383H9.31681C9.35579 0.699398 9.39473 0.707509 9.43371 0.715629ZM12.2299 10.3477C12.4143 10.4457 12.5973 10.5465 12.7799 10.6476C13.2684 10.9191 13.3203 11.0397 13.1872 11.588C13.0058 12.3361 12.196 12.8805 11.0093 12.8876C10.9457 12.8675 10.8656 12.8435 10.7735 12.8159C10.5231 12.7408 10.1845 12.6392 9.85245 12.5197C7.67168 11.7349 6.2818 10.1172 5.29132 8.10773C4.84125 7.19451 4.86596 6.2734 5.49714 5.42684C5.61947 5.26297 5.77565 5.10866 5.94762 5.00045C6.45003 4.68496 7.01516 4.87293 7.23594 5.41334C7.29264 5.55197 7.34412 5.693 7.39558 5.83398C7.47797 6.05968 7.56032 6.28528 7.66399 6.50082C7.8775 6.94445 7.76639 7.29295 7.46004 7.64125C7.01208 8.1507 7.02381 8.16868 7.39816 8.74274L7.40189 8.74846C7.97013 9.61973 8.71658 10.2868 9.64226 10.7633C9.97478 10.9346 10.2238 10.9118 10.4919 10.6279C11.2493 9.82639 11.2605 9.83237 12.2216 10.3433L12.2299 10.3477Z" fill="#63CCF5" />
</symbol></defs></svg>